<svg width="32" height="32" viewBox="0 0 24 24" fill="white" xmlns="http://www.w3.org/2000/svg">
  <path d="M12 .5C5.73.5.5 5.73.5 12c0 5.08 3.29 9.38 7.86 10.9.58.1.79-.25.79-.56v-2.02c-3.2.7-3.88-1.54-3.88-1.54-.53-1.34-1.3-1.7-1.3-1.7-1.06-.73.08-.72.08-.72 1.17.08 1.78 1.2 1.78 1.2 1.04 1.78 2.73 1.27 3.4.97.1-.75.41-1.27.75-1.56-2.55-.29-5.23-1.28-5.23-5.72 0-1.26.45-2.3 1.2-3.11-.12-.3-.52-1.52.12-3.17 0 0 .97-.31 3.18 1.18a11 11 0 0 1 5.8 0c2.2-1.49 3.17-1.18 3.17-1.18.64 1.65.24 2.87.12 3.17.75.81 1.2 1.85 1.2 3.11 0 4.45-2.69 5.43-5.25 5.71.42.37.8 1.1.8 2.22v3.29c0 .31.21.67.8.56A10.99 10.99 0 0 0 23.5 12C23.5 5.73 18.27.5 12 .5z"/>
</svg>
