<svg width="32" height="32" viewBox="0 0 24 24" fill="white" xmlns="http://www.w3.org/2000/svg">
  <path d="M4.98 3.5C4.98 4.60457 4.08457 5.5 2.98 5.5C1.87543 5.5 0.98 4.60457 0.98 3.5C0.98 2.39543 1.87543 1.5 2.98 1.5C4.08457 1.5 4.98 2.39543 4.98 3.5Z"/>
  <path d="M0.5 8H5.5V23H0.5V8Z"/>
  <path d="M8 8H12.735V10.059H12.798C13.408 8.94041 15.002 7.75 17.39 7.75C22.21 7.75 23 10.6769 23 15.048V23H18V15.945C18 13.8031 17.961 11.1731 15.39 11.1731C12.778 11.1731 12.39 13.3893 12.39 15.793V23H8V8Z"/>
</svg>
